# xmcd
#
# Track frame offsets: 
#        150
#        17058
#        45843
#        66331
#        74096
#        89780
#        102776
#        123216
#        158067
#        178822
#        208613
#        225719
#        244444
#        258090
#        273586
#        278723
#        314898
#
# Disc length: 4216 seconds
#
# Revision: 0
# Processed by: cddbd v1.5.2PL0 Copyright (c) Steve Scherf et al.
# Submitted via: ExactAudioCopy v0.99pb5
#
DISCID=fe107611
DTITLE=Various Artist - The Rough Guide To Arabic Lounge
DYEAR=2010
DGENRE=Crossover
TTITLE0=Ghazi Abdel Baki - Al Guineyna [Lebanon]
TTITLE1=Natacha Atlas - Hayati Inta Reprise (Hayatak Ana) [UK;Egypt]
TTITLE2=Rim Banna - The Hymn Of The Sea [Palestine]
TTITLE3=Charbel Rouhana - Ladyfingers [Lebanon]
TTITLE4=Soumana Baalbaki - Dakhalti Marra Fi Guineyna [Lebanon]
TTITLE5=Emad Ashour - Taksim Cello I [Egypt]
TTITLE6=Ishtar Alabina - Lamouni (Ligharou Meni) [Israel;Morocco]
TTITLE7=Amir Elsaffar - Khosh Reng (Maqam Awj) [Usa;Iraq]
TTITLE8=Smadar Levi - Voice Of Spirit [Israel;Morocco]
TTITLE9=Mohamed Sawwah - Mathadish El Gadar [Egypt]
TTITLE10=Hanine Y Son Cubano - El Huerfanito (Ya Habibi Ta'ala) [Leban
TTITLE10=on]
TTITLE11=Djamel Laroussi - N'Kodo [Morocco]
TTITLE12=Munir Bashir - Johnny Guitar [Iraq]
TTITLE13=Dozan - Ya Mo [Jordan]
TTITLE14=Mohamed Houssein - Taksim Bouzouk [Syria]
TTITLE15=Azzddine Ouhnine With Bill Laswell - Droub Al Lil [Morocco;Us
TTITLE15=a]
TTITLE16=Data Track
EXTD=
EXTT0=
EXTT1=
EXTT2=
EXTT3=
EXTT4=
EXTT5=
EXTT6=
EXTT7=
EXTT8=
EXTT9=
EXTT10=
EXTT11=
EXTT12=
EXTT13=
EXTT14=
EXTT15=
EXTT16=
PLAYORDER=
